<mxfile host="app.diagrams.net" modified="2023-05-02T20:37:26.054Z" agent="Mozilla/5.0 (Macintosh; Intel Mac OS X 10_15_7) AppleWebKit/605.1.15 (KHTML, like Gecko) Version/16.4 Safari/605.1.15" etag="JeD2c2ZKGqQGsryAvSvc" version="21.2.3">
  <diagram name="Page-1" id="7Dfnxv5kMgsFiC_2lj3k">
    <mxGraphModel dx="573" dy="705" grid="1" gridSize="10" guides="1" tooltips="1" connect="1" arrows="1" fold="1" page="1" pageScale="1" pageWidth="827" pageHeight="1169" math="0" shadow="0">
      <root>
        <mxCell id="0" />
        <mxCell id="1" parent="0" />
        <mxCell id="83Yx0TO5dqXn7qrXSAbP-21" value="" style="group" vertex="1" connectable="0" parent="1">
          <mxGeometry x="120" y="190" width="380" height="445" as="geometry" />
        </mxCell>
        <mxCell id="83Yx0TO5dqXn7qrXSAbP-1" value="" style="rounded=1;whiteSpace=wrap;html=1;shadow=1;glass=0;fillColor=#B2C9AB;strokeColor=#788AA3;labelBackgroundColor=none;fontColor=#46495D;" vertex="1" parent="83Yx0TO5dqXn7qrXSAbP-21">
          <mxGeometry y="30" width="380" height="70" as="geometry" />
        </mxCell>
        <mxCell id="83Yx0TO5dqXn7qrXSAbP-2" value="&lt;b&gt;Presentation layer&lt;/b&gt;" style="text;html=1;strokeColor=none;fillColor=none;align=center;verticalAlign=middle;whiteSpace=wrap;rounded=0;" vertex="1" parent="83Yx0TO5dqXn7qrXSAbP-21">
          <mxGeometry width="110" height="30" as="geometry" />
        </mxCell>
        <mxCell id="83Yx0TO5dqXn7qrXSAbP-3" value="" style="rounded=1;whiteSpace=wrap;html=1;shadow=1;glass=0;fillColor=#B2C9AB;strokeColor=#788AA3;labelBackgroundColor=none;fontColor=#46495D;" vertex="1" parent="83Yx0TO5dqXn7qrXSAbP-21">
          <mxGeometry y="140" width="380" height="70" as="geometry" />
        </mxCell>
        <mxCell id="83Yx0TO5dqXn7qrXSAbP-4" value="&lt;b&gt;Application services layer&lt;/b&gt;" style="text;html=1;strokeColor=none;fillColor=none;align=center;verticalAlign=middle;whiteSpace=wrap;rounded=0;" vertex="1" parent="83Yx0TO5dqXn7qrXSAbP-21">
          <mxGeometry y="110" width="160" height="30" as="geometry" />
        </mxCell>
        <mxCell id="83Yx0TO5dqXn7qrXSAbP-5" value="All functionalities &amp;amp; utilities" style="text;html=1;strokeColor=none;fillColor=none;align=center;verticalAlign=middle;whiteSpace=wrap;rounded=0;" vertex="1" parent="83Yx0TO5dqXn7qrXSAbP-21">
          <mxGeometry x="10" y="155" width="100" height="40" as="geometry" />
        </mxCell>
        <mxCell id="83Yx0TO5dqXn7qrXSAbP-7" value="Controle-Based interface (tailored according to the different kinds of users)" style="text;html=1;strokeColor=none;fillColor=none;align=center;verticalAlign=middle;whiteSpace=wrap;rounded=0;" vertex="1" parent="83Yx0TO5dqXn7qrXSAbP-21">
          <mxGeometry x="10" y="50" width="190" height="30" as="geometry" />
        </mxCell>
        <mxCell id="83Yx0TO5dqXn7qrXSAbP-9" value="authentification&lt;br&gt;&lt;br&gt;interaction with user" style="text;html=1;strokeColor=none;fillColor=none;align=center;verticalAlign=middle;whiteSpace=wrap;rounded=0;" vertex="1" parent="83Yx0TO5dqXn7qrXSAbP-21">
          <mxGeometry x="239" y="50" width="110" height="30" as="geometry" />
        </mxCell>
        <mxCell id="83Yx0TO5dqXn7qrXSAbP-10" value="&lt;p style=&quot;line-height: 80%;&quot;&gt;performance&lt;br&gt;&lt;font style=&quot;font-size: 2px;&quot;&gt;&amp;nbsp;&lt;/font&gt;&lt;br&gt;statistics&lt;br&gt;&lt;br&gt;scoring and ranking&lt;/p&gt;" style="text;html=1;strokeColor=none;fillColor=none;align=center;verticalAlign=middle;whiteSpace=wrap;rounded=0;" vertex="1" parent="83Yx0TO5dqXn7qrXSAbP-21">
          <mxGeometry x="129" y="145" width="110" height="60" as="geometry" />
        </mxCell>
        <mxCell id="83Yx0TO5dqXn7qrXSAbP-11" value="&lt;p style=&quot;line-height: 80%;&quot;&gt;air quality&lt;/p&gt;&lt;p style=&quot;line-height: 80%;&quot;&gt;observe impact&lt;/p&gt;&lt;p style=&quot;line-height: 80%;&quot;&gt;analyse data&lt;/p&gt;" style="text;html=1;strokeColor=none;fillColor=none;align=center;verticalAlign=middle;whiteSpace=wrap;rounded=0;" vertex="1" parent="83Yx0TO5dqXn7qrXSAbP-21">
          <mxGeometry x="250" y="145" width="110" height="60" as="geometry" />
        </mxCell>
        <mxCell id="83Yx0TO5dqXn7qrXSAbP-12" value="" style="rounded=1;whiteSpace=wrap;html=1;shadow=1;glass=0;fillColor=#B2C9AB;strokeColor=#788AA3;labelBackgroundColor=none;fontColor=#46495D;" vertex="1" parent="83Yx0TO5dqXn7qrXSAbP-21">
          <mxGeometry y="260" width="380" height="70" as="geometry" />
        </mxCell>
        <mxCell id="83Yx0TO5dqXn7qrXSAbP-13" value="&lt;b&gt;Domain layer&lt;/b&gt;" style="text;html=1;strokeColor=none;fillColor=none;align=center;verticalAlign=middle;whiteSpace=wrap;rounded=0;" vertex="1" parent="83Yx0TO5dqXn7qrXSAbP-21">
          <mxGeometry y="230" width="110" height="30" as="geometry" />
        </mxCell>
        <mxCell id="83Yx0TO5dqXn7qrXSAbP-14" value="All entities" style="text;html=1;strokeColor=none;fillColor=none;align=center;verticalAlign=middle;whiteSpace=wrap;rounded=0;" vertex="1" parent="83Yx0TO5dqXn7qrXSAbP-21">
          <mxGeometry x="10" y="275" width="100" height="40" as="geometry" />
        </mxCell>
        <mxCell id="83Yx0TO5dqXn7qrXSAbP-15" value="&lt;p style=&quot;line-height: 80%;&quot;&gt;user&lt;br&gt;&lt;font style=&quot;font-size: 2px;&quot;&gt;&amp;nbsp;&lt;/font&gt;&lt;br&gt;member of government&lt;br&gt;&lt;br&gt;provider&lt;/p&gt;" style="text;html=1;strokeColor=none;fillColor=none;align=center;verticalAlign=middle;whiteSpace=wrap;rounded=0;" vertex="1" parent="83Yx0TO5dqXn7qrXSAbP-21">
          <mxGeometry x="129" y="265" width="110" height="60" as="geometry" />
        </mxCell>
        <mxCell id="83Yx0TO5dqXn7qrXSAbP-16" value="&lt;p style=&quot;line-height: 80%;&quot;&gt;private individual&lt;/p&gt;&lt;p style=&quot;line-height: 80%;&quot;&gt;admin&lt;/p&gt;&lt;p style=&quot;line-height: 80%;&quot;&gt;sensor&lt;br&gt;&lt;/p&gt;" style="text;html=1;strokeColor=none;fillColor=none;align=center;verticalAlign=middle;whiteSpace=wrap;rounded=0;" vertex="1" parent="83Yx0TO5dqXn7qrXSAbP-21">
          <mxGeometry x="250" y="265" width="110" height="60" as="geometry" />
        </mxCell>
        <mxCell id="83Yx0TO5dqXn7qrXSAbP-17" value="" style="rounded=1;whiteSpace=wrap;html=1;shadow=1;glass=0;fillColor=#B2C9AB;strokeColor=#788AA3;labelBackgroundColor=none;fontColor=#46495D;" vertex="1" parent="83Yx0TO5dqXn7qrXSAbP-21">
          <mxGeometry y="375" width="380" height="70" as="geometry" />
        </mxCell>
        <mxCell id="83Yx0TO5dqXn7qrXSAbP-18" value="&lt;b&gt;Data layer&lt;/b&gt;" style="text;html=1;strokeColor=none;fillColor=none;align=center;verticalAlign=middle;whiteSpace=wrap;rounded=0;" vertex="1" parent="83Yx0TO5dqXn7qrXSAbP-21">
          <mxGeometry y="345" width="110" height="30" as="geometry" />
        </mxCell>
        <mxCell id="83Yx0TO5dqXn7qrXSAbP-19" value="data access" style="text;html=1;strokeColor=none;fillColor=none;align=center;verticalAlign=middle;whiteSpace=wrap;rounded=0;" vertex="1" parent="83Yx0TO5dqXn7qrXSAbP-21">
          <mxGeometry x="140" y="390" width="100" height="40" as="geometry" />
        </mxCell>
      </root>
    </mxGraphModel>
  </diagram>
</mxfile>
